<svg width="24" height="24" viewBox="0 0 24 24" fill="currentColor" xmlns="http://www.w3.org/2000/svg">
<path d="M7.86963 7C7.86963 4.64206 9.65041 3 11.8696 3C14.0888 3 15.8696 4.64206 15.8696 7V8.75C15.8696 11.1079 14.0888 12.75 11.8696 12.75C9.65041 12.75 7.86963 11.1079 7.86963 8.75V7ZM11.8696 4C10.1805 4 8.86963 5.21627 8.86963 7V8.75C8.86963 10.5337 10.1805 11.75 11.8696 11.75C13.5587 11.75 14.8696 10.5337 14.8696 8.75V7C14.8696 5.21627 13.5587 4 11.8696 4Z M6.92704 14.8603C8.44057 14.2415 10.2547 13.9131 11.5 13.9131C12.7453 13.9131 14.5594 14.2415 16.073 14.8603C16.8304 15.1699 17.5436 15.5647 18.0757 16.0528C18.6092 16.5422 19 17.1648 19 17.9131V20.4131H18V17.9131C18 17.5414 17.8104 17.1665 17.3997 16.7897C16.9874 16.4115 16.3926 16.0713 15.6945 15.7859C14.2972 15.2147 12.6114 14.9131 11.5 14.9131C10.3886 14.9131 8.70277 15.2147 7.30546 15.7859C6.60745 16.0713 6.01257 16.4115 5.60035 16.7897C5.18958 17.1665 5 17.5414 5 17.9131V20.4131H4V17.9131C4 17.1648 4.39084 16.5422 4.92434 16.0528C5.45639 15.5647 6.16963 15.1699 6.92704 14.8603Z"/>
</svg>
