<svg width="47" height="15" viewBox="0 0 47 15" fill="currentColor" xmlns="http://www.w3.org/2000/svg">
<path d="M3.69512 12.2232C3.15538 12.2232 2.69868 12.1403 2.24198 11.9332C1.78528 11.726 1.41162 11.4774 1.07947 11.1044C0.747328 10.773 0.498219 10.3172 0.290628 9.86138C0.0830364 9.40558 0 8.82549 0 8.24539V2.94163H1.8268V8.24539C1.8268 8.57687 1.86832 8.86692 1.99287 9.11554C2.11743 9.40558 2.2835 9.61276 2.44957 9.81994C2.65717 10.0271 2.86476 10.1929 3.11387 10.3172C3.36298 10.4415 3.6536 10.4829 3.94423 10.4829C4.23486 10.4829 4.52549 10.4415 4.81611 10.3172C5.10674 10.1929 5.31433 10.0271 5.52192 9.81994C5.72951 9.61276 5.89559 9.36415 6.02014 9.11554C6.1447 8.82549 6.18621 8.53544 6.18621 8.24539V2.94163H8.01301V12.1403H6.68443L6.26925 11.2288C6.10318 11.4359 5.89559 11.6017 5.64648 11.726C5.43889 11.8503 5.14826 11.9746 4.81611 12.0989C4.48397 12.2232 4.15182 12.2232 3.69512 12.2232Z"/>
<path d="M15.2789 2.85938C15.9017 2.85938 16.4829 2.98368 16.9811 3.19086C17.4794 3.39804 17.9776 3.72952 18.3928 4.14388C18.8079 4.55823 19.0986 5.05546 19.3477 5.63556C19.5553 6.21566 19.6798 6.83719 19.6798 7.54159C19.6798 8.246 19.5553 8.86753 19.3477 9.44763C19.1401 10.0277 18.8079 10.525 18.3928 10.9393C17.9776 11.3537 17.5209 11.6852 16.9811 11.8923C16.4414 12.1409 15.8601 12.2238 15.2789 12.2238C14.8222 12.2238 14.4485 12.1824 14.1579 12.0581C13.8258 11.9752 13.5766 11.8509 13.3691 11.6852C13.1199 11.5194 12.9124 11.3537 12.7463 11.1879V15H10.9195V2.94225H12.2481L12.6632 3.85383C12.8293 3.64665 13.0369 3.48091 13.286 3.31517C13.4936 3.19086 13.7842 3.06655 14.1164 2.98368C14.407 2.90081 14.8222 2.85938 15.2789 2.85938ZM15.1543 10.4835C15.4865 10.4835 15.8601 10.4006 16.1508 10.2763C16.4829 10.152 16.7735 9.94486 16.9811 9.65481C17.1887 9.36476 17.4378 9.07471 17.5624 8.70179C17.6869 8.32887 17.77 7.95595 17.77 7.50016C17.77 7.04437 17.6869 6.67145 17.5624 6.29853C17.4378 5.92561 17.2302 5.63556 16.9811 5.34551C16.732 5.05546 16.4414 4.88972 16.1508 4.72398C15.8601 4.55823 15.4865 4.5168 15.1543 4.5168C14.8222 4.5168 14.4485 4.59967 14.1579 4.72398C13.8258 4.84828 13.5351 5.05546 13.3275 5.34551C13.0784 5.59412 12.9124 5.92561 12.7463 6.29853C12.6217 6.67145 12.5387 7.04437 12.5387 7.50016C12.5387 7.95595 12.6217 8.32887 12.7463 8.70179C12.8708 9.07471 13.0784 9.36476 13.3275 9.65481C13.5766 9.90342 13.8673 10.1106 14.1579 10.2763C14.49 10.4421 14.8222 10.4835 15.1543 10.4835Z"/>
<path d="M23.998 12.1406H22.1712V0H23.998V12.1406Z"/>
<path d="M34.0037 12.1405L33.5885 11.2289C33.4225 11.4361 33.2149 11.6019 32.9658 11.7262C32.7582 11.8505 32.4675 11.9748 32.1354 12.0991C31.8032 12.182 31.3881 12.2648 30.9314 12.2648C30.3086 12.2648 29.7273 12.1405 29.2291 11.9333C28.6894 11.6847 28.2327 11.3947 27.8175 10.9803C27.4023 10.566 27.1117 10.0687 26.8626 9.48865C26.655 8.90855 26.5304 8.28701 26.5304 7.58261C26.5304 6.87821 26.655 6.25667 26.8626 5.67657C27.0702 5.09648 27.4023 4.59925 27.8175 4.18489C28.2327 3.77054 28.6894 3.43905 29.2291 3.23188C29.7688 3.0247 30.3501 2.90039 30.9314 2.90039C31.3881 2.90039 31.8032 2.94183 32.1354 3.06613C32.4675 3.19044 32.7582 3.27331 32.9658 3.39762C33.2149 3.56336 33.4225 3.7291 33.5885 3.93628L34.0037 3.0247H35.3323V12.2234H34.0037V12.1405ZM28.3572 7.54118C28.3572 7.99697 28.4403 8.36989 28.5648 8.74281C28.6894 9.11573 28.897 9.40578 29.1461 9.69582C29.3952 9.98587 29.6858 10.1516 29.9764 10.3174C30.3086 10.4417 30.6407 10.5245 30.9729 10.5245C31.305 10.5245 31.6787 10.4417 31.9693 10.3174C32.3015 10.1931 32.5921 9.98587 32.7997 9.69582C33.0488 9.44721 33.2149 9.11573 33.3809 8.74281C33.5055 8.36989 33.5885 7.99697 33.5885 7.54118C33.5885 7.08538 33.5055 6.71246 33.3809 6.33954C33.2564 5.96662 33.0488 5.67657 32.7997 5.38653C32.5506 5.13791 32.2599 4.93073 31.9693 4.76499C31.6372 4.64069 31.305 4.55781 30.9729 4.55781C30.6407 4.55781 30.2671 4.64069 29.9764 4.76499C29.6858 4.8893 29.3537 5.09648 29.1461 5.38653C28.9385 5.67657 28.6894 5.96662 28.5648 6.33954C28.4403 6.71246 28.3572 7.08538 28.3572 7.54118Z"/>
<path d="M42.6406 12.2235C42.1839 12.2235 41.7687 12.1821 41.4366 12.0578C41.1044 11.9749 40.8138 11.8506 40.6062 11.6848C40.3571 11.5191 40.1495 11.3533 39.9834 11.1876L39.5683 12.0992H38.2397V0H40.0665V3.89494C40.2325 3.68777 40.4401 3.52202 40.6892 3.35628C40.8968 3.23198 41.1875 3.10767 41.4781 3.0248C41.8102 2.90049 42.1839 2.85905 42.5991 2.85905C43.2219 2.85905 43.8031 2.98336 44.3013 3.19054C44.8411 3.43915 45.2978 3.7292 45.713 4.14356C46.1281 4.55791 46.4188 5.05514 46.6679 5.63524C46.917 6.21534 47 6.83687 47 7.54128C47 8.24568 46.8755 8.86721 46.6679 9.44731C46.4603 10.0274 46.1281 10.5246 45.713 10.939C45.2978 11.3533 44.8411 11.6848 44.3013 11.892C43.8031 12.1406 43.2219 12.2235 42.6406 12.2235ZM42.5161 4.59935C42.1424 4.59935 41.8102 4.68222 41.5196 4.80653C41.229 4.93083 40.8968 5.13801 40.6892 5.42806C40.4401 5.67667 40.2325 6.00816 40.108 6.38108C39.9834 6.754 39.9004 7.12692 39.9004 7.58271C39.9004 8.0385 39.9834 8.41142 40.108 8.78434C40.2325 9.15726 40.4401 9.44731 40.6892 9.73736C40.9384 9.98597 41.229 10.1932 41.5196 10.3589C41.8518 10.4832 42.1839 10.5661 42.5161 10.5661C42.8482 10.5661 43.2219 10.4832 43.5125 10.3589C43.8446 10.2346 44.1353 10.0274 44.3429 9.73736C44.592 9.48875 44.758 9.15726 44.9241 8.78434C45.0487 8.41142 45.1317 8.0385 45.1317 7.58271C45.1317 7.12692 45.0487 6.754 44.9241 6.38108C44.7996 6.00816 44.592 5.71811 44.3429 5.42806C44.0937 5.17945 43.8031 4.97227 43.5125 4.80653C43.2219 4.64078 42.8897 4.59935 42.5161 4.59935Z"/>
</svg>
