<svg width="32" height="32" viewBox="0 0 32 32" fill="currentColor" xmlns="http://www.w3.org/2000/svg">
<path d="M5.48776 4.64645C5.68302 4.45118 5.9996 4.45118 6.19486 4.64645L28.1152 26.5668C28.3104 26.762 28.3104 27.0786 28.1152 27.2739C27.9199 27.4691 27.6033 27.4691 27.4081 27.2739L5.48776 5.35355C5.29249 5.15829 5.29249 4.84171 5.48776 4.64645Z M4.64645 27.427C4.45118 27.2318 4.45118 26.9152 4.64645 26.7199L26.5668 4.79962C26.762 4.60436 27.0786 4.60436 27.2739 4.79962C27.4691 4.99488 27.4691 5.31147 27.2739 5.50673L5.35355 27.427C5.15829 27.6223 4.84171 27.6223 4.64645 27.427Z"/>
</svg>
